<mxfile host="app.diagrams.net" modified="2022-12-27T02:38:50.260Z" agent="5.0 (Macintosh; Intel Mac OS X 10_15_7) AppleWebKit/537.36 (KHTML, like Gecko) Chrome/108.0.0.0 Safari/537.36" etag="jTTDIkdRYqrQ3GAWwhdf" version="20.7.4" type="github">
  <diagram id="Cd5y1kNHd57_tZJnAyKG" name="Page-1">
    <mxGraphModel dx="1050" dy="509" grid="1" gridSize="10" guides="1" tooltips="1" connect="1" arrows="1" fold="1" page="1" pageScale="1" pageWidth="827" pageHeight="1169" math="0" shadow="0">
      <root>
        <mxCell id="0" />
        <mxCell id="1" parent="0" />
        <mxCell id="p-IA0xXEfbXuH0E2RTc1-1" value="" style="rounded=0;whiteSpace=wrap;html=1;" parent="1" vertex="1">
          <mxGeometry x="300" y="150" width="400" height="460" as="geometry" />
        </mxCell>
        <mxCell id="p-IA0xXEfbXuH0E2RTc1-2" value="" style="rounded=0;whiteSpace=wrap;html=1;" parent="1" vertex="1">
          <mxGeometry x="780" y="150" width="170" height="460" as="geometry" />
        </mxCell>
        <mxCell id="p-IA0xXEfbXuH0E2RTc1-3" value="" style="rounded=0;whiteSpace=wrap;html=1;" parent="1" vertex="1">
          <mxGeometry x="80" y="150" width="190" height="460" as="geometry" />
        </mxCell>
        <mxCell id="p-IA0xXEfbXuH0E2RTc1-4" style="edgeStyle=orthogonalEdgeStyle;curved=1;orthogonalLoop=1;jettySize=auto;html=1;exitX=1;exitY=0.5;exitDx=0;exitDy=0;exitPerimeter=0;entryX=0;entryY=0.5;entryDx=0;entryDy=0;" parent="1" source="p-IA0xXEfbXuH0E2RTc1-5" target="p-IA0xXEfbXuH0E2RTc1-22" edge="1">
          <mxGeometry relative="1" as="geometry" />
        </mxCell>
        <mxCell id="p-IA0xXEfbXuH0E2RTc1-5" value="Amazon RDS" style="sketch=0;points=[[0,0,0],[0.25,0,0],[0.5,0,0],[0.75,0,0],[1,0,0],[0,1,0],[0.25,1,0],[0.5,1,0],[0.75,1,0],[1,1,0],[0,0.25,0],[0,0.5,0],[0,0.75,0],[1,0.25,0],[1,0.5,0],[1,0.75,0]];outlineConnect=0;fontColor=#232F3E;gradientColor=#4D72F3;gradientDirection=north;fillColor=#3334B9;strokeColor=#ffffff;dashed=0;verticalLabelPosition=bottom;verticalAlign=top;align=center;html=1;fontSize=12;fontStyle=0;aspect=fixed;shape=mxgraph.aws4.resourceIcon;resIcon=mxgraph.aws4.rds;" parent="1" vertex="1">
          <mxGeometry x="90" y="341" width="78" height="78" as="geometry" />
        </mxCell>
        <mxCell id="p-IA0xXEfbXuH0E2RTc1-6" value="Amazon Athena" style="sketch=0;points=[[0,0,0],[0.25,0,0],[0.5,0,0],[0.75,0,0],[1,0,0],[0,1,0],[0.25,1,0],[0.5,1,0],[0.75,1,0],[1,1,0],[0,0.25,0],[0,0.5,0],[0,0.75,0],[1,0.25,0],[1,0.5,0],[1,0.75,0]];outlineConnect=0;fontColor=#232F3E;gradientColor=#945DF2;gradientDirection=north;fillColor=#5A30B5;strokeColor=#ffffff;dashed=0;verticalLabelPosition=bottom;verticalAlign=top;align=center;html=1;fontSize=12;fontStyle=0;aspect=fixed;shape=mxgraph.aws4.resourceIcon;resIcon=mxgraph.aws4.athena;" parent="1" vertex="1">
          <mxGeometry x="826" y="220" width="78" height="78" as="geometry" />
        </mxCell>
        <mxCell id="p-IA0xXEfbXuH0E2RTc1-7" value="Amazon EMR&lt;br&gt;Trino" style="sketch=0;points=[[0,0,0],[0.25,0,0],[0.5,0,0],[0.75,0,0],[1,0,0],[0,1,0],[0.25,1,0],[0.5,1,0],[0.75,1,0],[1,1,0],[0,0.25,0],[0,0.5,0],[0,0.75,0],[1,0.25,0],[1,0.5,0],[1,0.75,0]];outlineConnect=0;fontColor=#232F3E;gradientColor=#945DF2;gradientDirection=north;fillColor=#5A30B5;strokeColor=#ffffff;dashed=0;verticalLabelPosition=bottom;verticalAlign=top;align=center;html=1;fontSize=12;fontStyle=0;aspect=fixed;shape=mxgraph.aws4.resourceIcon;resIcon=mxgraph.aws4.emr;" parent="1" vertex="1">
          <mxGeometry x="837" y="438.13" width="78" height="78" as="geometry" />
        </mxCell>
        <mxCell id="p-IA0xXEfbXuH0E2RTc1-8" value="Ingestion" style="rounded=1;whiteSpace=wrap;html=1;fillColor=#99CCFF;" parent="1" vertex="1">
          <mxGeometry x="80" y="150" width="190" height="40" as="geometry" />
        </mxCell>
        <mxCell id="p-IA0xXEfbXuH0E2RTc1-9" value="Processing" style="rounded=1;whiteSpace=wrap;html=1;fillColor=#99CCFF;" parent="1" vertex="1">
          <mxGeometry x="300" y="150" width="400" height="40" as="geometry" />
        </mxCell>
        <mxCell id="p-IA0xXEfbXuH0E2RTc1-10" style="edgeStyle=orthogonalEdgeStyle;curved=1;orthogonalLoop=1;jettySize=auto;html=1;entryX=0;entryY=0.25;entryDx=0;entryDy=0;entryPerimeter=0;dashed=1;startArrow=classic;startFill=1;" parent="1" source="p-IA0xXEfbXuH0E2RTc1-14" target="p-IA0xXEfbXuH0E2RTc1-6" edge="1">
          <mxGeometry relative="1" as="geometry" />
        </mxCell>
        <mxCell id="p-IA0xXEfbXuH0E2RTc1-11" value="metadata" style="edgeLabel;html=1;align=center;verticalAlign=middle;resizable=0;points=[];" parent="p-IA0xXEfbXuH0E2RTc1-10" vertex="1" connectable="0">
          <mxGeometry x="0.2327" y="-6" relative="1" as="geometry">
            <mxPoint y="1" as="offset" />
          </mxGeometry>
        </mxCell>
        <mxCell id="p-IA0xXEfbXuH0E2RTc1-12" style="edgeStyle=orthogonalEdgeStyle;curved=1;orthogonalLoop=1;jettySize=auto;html=1;entryX=0;entryY=0.25;entryDx=0;entryDy=0;entryPerimeter=0;dashed=1;startArrow=classic;startFill=1;" parent="1" source="p-IA0xXEfbXuH0E2RTc1-14" target="p-IA0xXEfbXuH0E2RTc1-7" edge="1">
          <mxGeometry relative="1" as="geometry" />
        </mxCell>
        <mxCell id="p-IA0xXEfbXuH0E2RTc1-13" value="metadata" style="edgeLabel;html=1;align=center;verticalAlign=middle;resizable=0;points=[];" parent="p-IA0xXEfbXuH0E2RTc1-12" vertex="1" connectable="0">
          <mxGeometry x="-0.1131" y="1" relative="1" as="geometry">
            <mxPoint x="-35" y="-41" as="offset" />
          </mxGeometry>
        </mxCell>
        <mxCell id="p-IA0xXEfbXuH0E2RTc1-14" value="AWS Glue &lt;br&gt;Data Catalog" style="sketch=0;outlineConnect=0;fontColor=#232F3E;gradientColor=none;fillColor=#4D27AA;strokeColor=none;dashed=0;verticalLabelPosition=bottom;verticalAlign=top;align=center;html=1;fontSize=12;fontStyle=0;aspect=fixed;pointerEvents=1;shape=mxgraph.aws4.glue_data_catalog;" parent="1" vertex="1">
          <mxGeometry x="620" y="238" width="72" height="78" as="geometry" />
        </mxCell>
        <mxCell id="p-IA0xXEfbXuH0E2RTc1-15" value="" style="rounded=0;whiteSpace=wrap;html=1;fillColor=#99CCFF;" parent="1" vertex="1">
          <mxGeometry x="310" y="220" width="280" height="370" as="geometry" />
        </mxCell>
        <mxCell id="p-IA0xXEfbXuH0E2RTc1-16" style="edgeStyle=orthogonalEdgeStyle;curved=1;orthogonalLoop=1;jettySize=auto;html=1;entryX=0;entryY=0.75;entryDx=0;entryDy=0;entryPerimeter=0;startArrow=classic;startFill=1;" parent="1" source="p-IA0xXEfbXuH0E2RTc1-20" target="p-IA0xXEfbXuH0E2RTc1-6" edge="1">
          <mxGeometry relative="1" as="geometry">
            <Array as="points">
              <mxPoint x="790" y="470" />
              <mxPoint x="790" y="279" />
            </Array>
          </mxGeometry>
        </mxCell>
        <mxCell id="p-IA0xXEfbXuH0E2RTc1-17" value="data" style="edgeLabel;html=1;align=center;verticalAlign=middle;resizable=0;points=[];" parent="p-IA0xXEfbXuH0E2RTc1-16" vertex="1" connectable="0">
          <mxGeometry x="-0.7539" y="12" relative="1" as="geometry">
            <mxPoint x="8" y="-39" as="offset" />
          </mxGeometry>
        </mxCell>
        <mxCell id="p-IA0xXEfbXuH0E2RTc1-18" style="edgeStyle=orthogonalEdgeStyle;curved=1;orthogonalLoop=1;jettySize=auto;html=1;entryX=0;entryY=0.75;entryDx=0;entryDy=0;entryPerimeter=0;startArrow=classic;startFill=1;" parent="1" source="p-IA0xXEfbXuH0E2RTc1-20" target="p-IA0xXEfbXuH0E2RTc1-7" edge="1">
          <mxGeometry relative="1" as="geometry" />
        </mxCell>
        <mxCell id="p-IA0xXEfbXuH0E2RTc1-19" value="data" style="edgeLabel;html=1;align=center;verticalAlign=middle;resizable=0;points=[];" parent="p-IA0xXEfbXuH0E2RTc1-18" vertex="1" connectable="0">
          <mxGeometry x="-0.5581" y="-2" relative="1" as="geometry">
            <mxPoint x="20" y="18" as="offset" />
          </mxGeometry>
        </mxCell>
        <mxCell id="p-IA0xXEfbXuH0E2RTc1-20" value="Amazon S3" style="outlineConnect=0;dashed=0;verticalLabelPosition=bottom;verticalAlign=top;align=center;html=1;shape=mxgraph.aws3.s3;fillColor=#E05243;gradientColor=none;" parent="1" vertex="1">
          <mxGeometry x="615.5" y="423.13" width="76.5" height="93" as="geometry" />
        </mxCell>
        <mxCell id="p-IA0xXEfbXuH0E2RTc1-21" value="Consumption" style="rounded=1;whiteSpace=wrap;html=1;fillColor=#99CCFF;" parent="1" vertex="1">
          <mxGeometry x="780" y="150" width="170" height="40" as="geometry" />
        </mxCell>
        <mxCell id="p-IA0xXEfbXuH0E2RTc1-22" value="binlog" style="rounded=0;whiteSpace=wrap;html=1;fillColor=#99CCFF;" parent="1" vertex="1">
          <mxGeometry x="200" y="361.75" width="60" height="36.5" as="geometry" />
        </mxCell>
        <mxCell id="p-IA0xXEfbXuH0E2RTc1-23" style="edgeStyle=orthogonalEdgeStyle;curved=1;orthogonalLoop=1;jettySize=auto;html=1;entryX=0;entryY=0.5;entryDx=0;entryDy=0;" parent="1" source="p-IA0xXEfbXuH0E2RTc1-35" target="p-IA0xXEfbXuH0E2RTc1-30" edge="1">
          <mxGeometry relative="1" as="geometry" />
        </mxCell>
        <mxCell id="p-IA0xXEfbXuH0E2RTc1-24" value="Amazon EMR &lt;br&gt;Flink" style="sketch=0;points=[[0,0,0],[0.25,0,0],[0.5,0,0],[0.75,0,0],[1,0,0],[0,1,0],[0.25,1,0],[0.5,1,0],[0.75,1,0],[1,1,0],[0,0.25,0],[0,0.5,0],[0,0.75,0],[1,0.25,0],[1,0.5,0],[1,0.75,0]];outlineConnect=0;fontColor=#232F3E;gradientColor=#945DF2;gradientDirection=north;fillColor=#5A30B5;strokeColor=#ffffff;dashed=0;verticalLabelPosition=bottom;verticalAlign=top;align=center;html=1;fontSize=12;fontStyle=0;aspect=fixed;shape=mxgraph.aws4.resourceIcon;resIcon=mxgraph.aws4.emr;" parent="1" vertex="1">
          <mxGeometry x="310" y="220" width="78" height="78" as="geometry" />
        </mxCell>
        <mxCell id="p-IA0xXEfbXuH0E2RTc1-27" value="" style="rounded=0;whiteSpace=wrap;html=1;fillColor=#d5e8d4;strokeColor=#82b366;" parent="1" vertex="1">
          <mxGeometry x="400" y="230" width="180" height="140" as="geometry" />
        </mxCell>
        <mxCell id="p-IA0xXEfbXuH0E2RTc1-29" value="" style="rounded=0;whiteSpace=wrap;html=1;fillColor=#fff2cc;strokeColor=#d6b656;" parent="1" vertex="1">
          <mxGeometry x="320" y="390" width="260" height="190" as="geometry" />
        </mxCell>
        <mxCell id="p-IA0xXEfbXuH0E2RTc1-30" value="Flink Hudi&lt;br&gt;&amp;nbsp;Connector" style="rounded=0;whiteSpace=wrap;html=1;fillColor=#e1d5e7;strokeColor=#9673a6;" parent="1" vertex="1">
          <mxGeometry x="440.5" y="463" width="115" height="60" as="geometry" />
        </mxCell>
        <mxCell id="p-IA0xXEfbXuH0E2RTc1-41" style="edgeStyle=orthogonalEdgeStyle;orthogonalLoop=1;jettySize=auto;html=1;exitX=1;exitY=0.5;exitDx=0;exitDy=0;dashed=1;startArrow=classic;startFill=1;curved=1;" parent="1" source="p-IA0xXEfbXuH0E2RTc1-32" target="p-IA0xXEfbXuH0E2RTc1-14" edge="1">
          <mxGeometry relative="1" as="geometry" />
        </mxCell>
        <mxCell id="cfmlO-W1WEwU-Trc5lnm-1" value="metadata" style="edgeLabel;html=1;align=center;verticalAlign=middle;resizable=0;points=[];" vertex="1" connectable="0" parent="p-IA0xXEfbXuH0E2RTc1-41">
          <mxGeometry x="0.0802" relative="1" as="geometry">
            <mxPoint x="-9" y="20" as="offset" />
          </mxGeometry>
        </mxCell>
        <mxCell id="p-IA0xXEfbXuH0E2RTc1-32" value="Catalog for Hive" style="rounded=0;whiteSpace=wrap;html=1;fillColor=#f5f5f5;strokeColor=#666666;fontColor=#333333;" parent="1" vertex="1">
          <mxGeometry x="443" y="257" width="110" height="40" as="geometry" />
        </mxCell>
        <mxCell id="p-IA0xXEfbXuH0E2RTc1-34" style="edgeStyle=orthogonalEdgeStyle;curved=1;orthogonalLoop=1;jettySize=auto;html=1;entryX=0;entryY=0.5;entryDx=0;entryDy=0;strokeWidth=1;fontColor=default;startArrow=none;startFill=0;endArrow=classic;endFill=1;" parent="1" source="p-IA0xXEfbXuH0E2RTc1-35" target="p-IA0xXEfbXuH0E2RTc1-30" edge="1">
          <mxGeometry relative="1" as="geometry" />
        </mxCell>
        <mxCell id="1v09oZFCCwroGa9Er5zX-6" style="edgeStyle=orthogonalEdgeStyle;curved=1;orthogonalLoop=1;jettySize=auto;html=1;entryX=0;entryY=0.25;entryDx=0;entryDy=0;dashed=1;startArrow=classic;startFill=1;exitX=0.5;exitY=0;exitDx=0;exitDy=0;" parent="1" source="p-IA0xXEfbXuH0E2RTc1-35" target="p-IA0xXEfbXuH0E2RTc1-32" edge="1">
          <mxGeometry relative="1" as="geometry">
            <Array as="points">
              <mxPoint x="375" y="440" />
              <mxPoint x="410" y="440" />
              <mxPoint x="410" y="267" />
            </Array>
          </mxGeometry>
        </mxCell>
        <mxCell id="1v09oZFCCwroGa9Er5zX-7" value="metadata" style="edgeLabel;html=1;align=center;verticalAlign=middle;resizable=0;points=[];" parent="1v09oZFCCwroGa9Er5zX-6" vertex="1" connectable="0">
          <mxGeometry x="-0.1272" y="-2" relative="1" as="geometry">
            <mxPoint as="offset" />
          </mxGeometry>
        </mxCell>
        <mxCell id="p-IA0xXEfbXuH0E2RTc1-35" value="Flink CDC&lt;br&gt;Connector" style="rounded=0;whiteSpace=wrap;html=1;fillColor=#e1d5e7;strokeColor=#9673a6;" parent="1" vertex="1">
          <mxGeometry x="330" y="461.13" width="90" height="61.87" as="geometry" />
        </mxCell>
        <mxCell id="p-IA0xXEfbXuH0E2RTc1-38" style="edgeStyle=orthogonalEdgeStyle;orthogonalLoop=1;jettySize=auto;html=1;entryX=0;entryY=0.25;entryDx=0;entryDy=0;strokeWidth=1;fontColor=default;startArrow=none;startFill=0;endArrow=classic;endFill=1;curved=1;" parent="1" source="p-IA0xXEfbXuH0E2RTc1-22" target="p-IA0xXEfbXuH0E2RTc1-35" edge="1">
          <mxGeometry relative="1" as="geometry" />
        </mxCell>
        <mxCell id="p-IA0xXEfbXuH0E2RTc1-39" style="edgeStyle=orthogonalEdgeStyle;curved=1;orthogonalLoop=1;jettySize=auto;html=1;entryX=0;entryY=0.5;entryDx=0;entryDy=0;entryPerimeter=0;strokeColor=default;startArrow=classic;startFill=1;" parent="1" source="p-IA0xXEfbXuH0E2RTc1-30" target="p-IA0xXEfbXuH0E2RTc1-20" edge="1">
          <mxGeometry relative="1" as="geometry" />
        </mxCell>
        <mxCell id="cfmlO-W1WEwU-Trc5lnm-3" value="data" style="edgeLabel;html=1;align=center;verticalAlign=middle;resizable=0;points=[];" vertex="1" connectable="0" parent="p-IA0xXEfbXuH0E2RTc1-39">
          <mxGeometry x="0.0072" y="-1" relative="1" as="geometry">
            <mxPoint x="1" as="offset" />
          </mxGeometry>
        </mxCell>
        <mxCell id="1v09oZFCCwroGa9Er5zX-1" value="Catalog" style="rounded=0;whiteSpace=wrap;html=1;fillColor=#f5f5f5;strokeColor=#666666;fontColor=#333333;" parent="1" vertex="1">
          <mxGeometry x="400" y="230" width="70" height="20" as="geometry" />
        </mxCell>
        <mxCell id="1v09oZFCCwroGa9Er5zX-2" value="Connector" style="rounded=0;whiteSpace=wrap;html=1;fillColor=#f5f5f5;strokeColor=#666666;fontColor=#333333;" parent="1" vertex="1">
          <mxGeometry x="320" y="390" width="70" height="20" as="geometry" />
        </mxCell>
        <mxCell id="1v09oZFCCwroGa9Er5zX-5" value="metadata" style="edgeStyle=orthogonalEdgeStyle;curved=1;orthogonalLoop=1;jettySize=auto;html=1;entryX=0.5;entryY=0;entryDx=0;entryDy=0;dashed=1;startArrow=classic;startFill=1;" parent="1" source="1v09oZFCCwroGa9Er5zX-3" target="p-IA0xXEfbXuH0E2RTc1-30" edge="1">
          <mxGeometry relative="1" as="geometry" />
        </mxCell>
        <mxCell id="cfmlO-W1WEwU-Trc5lnm-2" style="edgeStyle=orthogonalEdgeStyle;curved=1;orthogonalLoop=1;jettySize=auto;html=1;exitX=1;exitY=0.5;exitDx=0;exitDy=0;dashed=1;startArrow=classic;startFill=1;" edge="1" parent="1" source="1v09oZFCCwroGa9Er5zX-3" target="p-IA0xXEfbXuH0E2RTc1-14">
          <mxGeometry relative="1" as="geometry" />
        </mxCell>
        <mxCell id="1v09oZFCCwroGa9Er5zX-3" value="Catalog for Hudi" style="rounded=0;whiteSpace=wrap;html=1;fillColor=#f5f5f5;strokeColor=#666666;fontColor=#333333;" parent="1" vertex="1">
          <mxGeometry x="443" y="310" width="110" height="40" as="geometry" />
        </mxCell>
      </root>
    </mxGraphModel>
  </diagram>
</mxfile>
